<?xml version="1.0" encoding="UTF-8"?>
<svg version="1.1" xmlns="http://www.w3.org/2000/svg" width="605" height="554">
<path d="M0 0 C24.729375 -0.0825 49.45875 -0.165 74.9375 -0.25 C82.71820068 -0.28641602 90.49890137 -0.32283203 98.51538086 -0.36035156 C108.08703613 -0.37841797 108.08703613 -0.37841797 112.58155823 -0.3817749 C115.6909296 -0.38547056 118.80002206 -0.4003347 121.90931702 -0.42230225 C161.20829204 -0.6877882 161.20829204 -0.6877882 177.8125 7.6875 C178.51133301 8.02998779 179.21016602 8.37247559 179.93017578 8.7253418 C201.27867543 19.55141624 216.02701255 37.74741767 224 60 C230.92265106 82.69543641 229.09101839 106.55732573 219 128 C208.56260532 147.59827346 193.02136046 159.52935837 174 170 C183.40259026 184.18833979 192.95307019 198.27502336 202.52099609 212.35205078 C206.47525799 218.17021331 210.42514479 223.99134535 214.375 229.8125 C214.75936218 230.37894226 215.14372437 230.94538452 215.53973389 231.5289917 C218.3602284 235.68571924 221.18025309 239.84276529 224 244 C224.67050385 244.98851959 224.67050385 244.98851959 225.35455322 245.99700928 C228.17538421 250.155941 230.99555402 254.31532008 233.81500244 258.47518921 C234.71291715 259.79985997 235.61098238 261.12442873 236.50921631 262.44888306 C238.956435 266.05751236 241.39950243 269.66888967 243.83831787 273.28320312 C245.01719125 275.02540616 246.20285282 276.76285271 247.38916016 278.5 C248.12312012 279.5828125 248.85708008 280.665625 249.61328125 281.78125 C250.26723877 282.74095703 250.92119629 283.70066406 251.5949707 284.68945312 C253 287 253 287 253 289 C245.2379118 289.3494913 237.47770299 289.6149947 229.70969677 289.77718258 C226.10089733 289.85509083 222.4975212 289.96042655 218.8918457 290.1315918 C195.74449363 291.20152829 195.74449363 291.20152829 189.67901611 287.63540649 C186.02863491 284.28763169 183.8410838 280.3586648 181.85195923 275.86618042 C180.69725982 273.33686053 179.1551923 271.17546279 177.53125 268.92578125 C176.51761071 267.39014316 175.50724187 265.8523418 174.5 264.3125 C173.30447181 262.50318793 172.10779411 260.69463506 170.91015625 258.88671875 C170.28125488 257.93716309 169.65235352 256.98760742 169.00439453 256.00927734 C165.35078054 250.52396113 161.64301768 245.07531287 157.9375 239.625 C157.13800586 238.44865926 156.33852682 237.27230827 155.5390625 236.09594727 C154.30816868 234.28479608 153.07725031 232.47366167 151.84616089 230.66264343 C148.7268713 226.07288338 145.61408092 221.4787531 142.50390625 216.8828125 C142.04666168 216.20724808 141.58941711 215.53168365 141.11831665 214.83564758 C139.29549913 212.14238665 137.47273897 209.44908772 135.65100098 206.75509644 C129.48011905 197.62991584 129.48011905 197.62991584 123.23046875 188.55859375 C122.70259766 187.79901367 122.17472656 187.03943359 121.63085938 186.25683594 C120.70553992 184.93021081 119.77620402 183.6063728 118.84179688 182.28613281 C116 178.21730384 116 178.21730384 116 176 C94.55 176 73.1 176 51 176 C51 213.29 51 250.58 51 289 C34.17 289 17.34 289 0 289 C0 193.63 0 98.26 0 0 Z M51 51 C51 75.42 51 99.84 51 125 C67.21188651 125.11651026 67.21188651 125.11651026 83.42382812 125.1953125 C90.04448408 125.21914376 96.66491693 125.24721364 103.28540039 125.30175781 C108.6281814 125.34549558 113.97072286 125.36919574 119.3136692 125.37950897 C121.34324726 125.38685049 123.37281349 125.40118558 125.40228844 125.42292023 C139.4233269 125.56698844 152.80025148 125.68838266 164.00390625 115.96484375 C171.93322676 108.15966133 176.87644707 99.25969894 177.4375 87.875 C175.78531796 73.24138767 169.73988817 64.50817092 158.453125 55.4296875 C151.65585808 51.46822302 144.91184024 50.5628718 137.16577148 50.65942383 C136.22811447 50.65898575 135.29045746 50.65854767 134.3243866 50.65809631 C131.25640293 50.6601694 128.18898075 50.68343019 125.12109375 50.70703125 C122.98161619 50.71263247 120.84213477 50.71690008 118.70265198 50.71989441 C113.0950136 50.73130172 107.4876115 50.76073337 101.88006592 50.79400635 C95.13937003 50.83021773 88.39859477 50.84388797 81.65782928 50.86136627 C71.43838896 50.8903732 61.2194662 50.94788941 51 51 Z " fill="#2BA8A1" transform="translate(122,263)"/>
<path d="M0 0 C1.61358398 -0.01836914 1.61358398 -0.01836914 3.25976562 -0.03710938 C4.28650391 -0.03904297 5.31324219 -0.04097656 6.37109375 -0.04296875 C7.79119751 -0.04913208 7.79119751 -0.04913208 9.23999023 -0.05541992 C11.5625 0.1875 11.5625 0.1875 13.5625 2.1875 C13.78955078 4.06689453 13.78955078 4.06689453 13.7578125 6.3203125 C13.74814453 7.52880859 13.74814453 7.52880859 13.73828125 8.76171875 C13.71314453 10.02435547 13.71314453 10.02435547 13.6875 11.3125 C13.67847656 12.16199219 13.66945312 13.01148438 13.66015625 13.88671875 C13.63655647 15.98709884 13.60068483 18.08733444 13.5625 20.1875 C14.59265228 20.17861755 15.62280457 20.16973511 16.68417358 20.1605835 C26.42308387 20.0792689 36.16192469 20.01942517 45.90109825 19.98025131 C50.90735469 19.95943409 55.91333566 19.93122423 60.91943359 19.88574219 C65.75646269 19.84207444 70.59322789 19.81831884 75.430439 19.80799103 C77.26991552 19.80063707 79.10937866 19.78627696 80.94874191 19.76457977 C93.07216206 19.62734297 103.67058128 19.70552205 113.03125 28.4921875 C119.78830942 35.97321758 121.83813277 44.0090367 121.7578125 53.96875 C121.75356766 55.01718079 121.75356766 55.01718079 121.74923706 56.08679199 C121.7381727 58.28721316 121.71309606 60.48720493 121.6875 62.6875 C121.67745235 64.19270239 121.66832965 65.69791126 121.66015625 67.203125 C121.63827893 70.86471938 121.60384696 74.52606768 121.5625 78.1875 C122.53832031 78.15269531 123.51414062 78.11789063 124.51953125 78.08203125 C126.42798828 78.04142578 126.42798828 78.04142578 128.375 78 C129.63957031 77.96519531 130.90414063 77.93039063 132.20703125 77.89453125 C135.5625 78.1875 135.5625 78.1875 137.2469635 79.35572815 C139.0716993 81.89651639 138.94992159 83.67485828 138.96655273 86.78881836 C138.98557899 88.51091774 138.98557899 88.51091774 139.00498962 90.26780701 C139.00058617 92.12877769 139.00058617 92.12877769 138.99609375 94.02734375 C139.0013356 95.30098282 139.00657745 96.57462189 139.01197815 97.88685608 C139.0184079 100.58300569 139.01848429 103.27831093 139.00854492 105.97436523 C138.99705932 109.42583895 139.01725698 112.87628893 139.04646206 116.32762814 C139.06924367 119.62337194 139.06235663 122.91903964 139.05859375 126.21484375 C139.06982773 127.45346664 139.08106171 128.69208954 139.09263611 129.96824646 C139.08325516 131.11946487 139.07387421 132.27068329 139.06420898 133.45678711 C139.06395973 134.97543617 139.06395973 134.97543617 139.06370544 136.52476501 C138.42510263 139.91744578 137.27254146 141.10734102 134.5625 143.1875 C131.328125 143.578125 131.328125 143.578125 127.8125 143.4375 C126.64203125 143.40140625 125.4715625 143.3653125 124.265625 143.328125 C123.37359375 143.28171875 122.4815625 143.2353125 121.5625 143.1875 C121.58344727 144.09927002 121.60439453 145.01104004 121.62597656 145.95043945 C121.69480293 149.3854414 121.74461096 152.81969388 121.78222656 156.25512695 C121.80214487 157.73213378 121.82929007 159.20906384 121.86425781 160.68579102 C122.12037259 171.79288608 121.5077767 181.53470195 114.3125 190.5625 C107.61266867 197.53375307 100.32737734 200.80620701 90.67277813 201.44476891 C89.29433868 201.4581561 87.91576822 201.46101875 86.53727722 201.45492554 C85.7704952 201.45945665 85.00371318 201.46398776 84.21369535 201.46865618 C81.66608245 201.4812306 79.11868525 201.47968436 76.57104492 201.47802734 C74.73551664 201.48401693 72.89999087 201.49082346 71.06446838 201.49838257 C66.09327414 201.51600546 61.12214881 201.52073637 56.15092635 201.52201414 C53.04113984 201.52343834 49.9313707 201.52771301 46.82158852 201.53300858 C35.96137001 201.55149619 25.10120052 201.55968073 14.2409668 201.55810547 C4.13554716 201.55690424 -5.96965884 201.57800624 -16.07502443 201.6095928 C-24.76659101 201.63578708 -33.45808794 201.64647145 -42.14969367 201.64519465 C-47.33392494 201.64468597 -52.51796621 201.65031726 -57.70215797 201.67155075 C-62.58028797 201.69098641 -67.45804774 201.69102125 -72.33619118 201.67651749 C-74.1199091 201.67443494 -75.90365052 201.67909706 -77.68732834 201.6912384 C-89.84571428 201.76859742 -100.79829135 200.97622385 -110.6484375 193.03125 C-117.4863294 185.98433957 -119.60320257 178.89223295 -119.53515625 169.359375 C-119.5337413 168.61036926 -119.53232635 167.86136353 -119.53086853 167.08966064 C-119.52528659 164.70556588 -119.51273745 162.32156622 -119.5 159.9375 C-119.49498266 158.31770969 -119.49042016 156.69791791 -119.48632812 155.078125 C-119.47532308 151.11454688 -119.45807091 147.15103955 -119.4375 143.1875 C-120.32953125 143.22230469 -121.2215625 143.25710937 -122.140625 143.29296875 C-123.31109375 143.32003906 -124.4815625 143.34710938 -125.6875 143.375 C-126.84765625 143.40980469 -128.0078125 143.44460937 -129.203125 143.48046875 C-132.81105151 143.15366381 -133.91827083 142.71952716 -136.4375 140.1875 C-136.93870544 137.60705566 -136.93870544 137.60705566 -136.93920898 134.47851562 C-136.94858994 133.30720093 -136.95797089 132.13588623 -136.96763611 130.92907715 C-136.95640213 129.66341919 -136.94516815 128.39776123 -136.93359375 127.09375 C-136.93504898 125.79554321 -136.93650421 124.49733643 -136.93800354 123.15979004 C-136.93938782 120.41247287 -136.92682598 117.66567759 -136.90405273 114.91845703 C-136.87566695 111.39750101 -136.8784045 107.8774121 -136.89114285 104.35639191 C-136.89977149 100.99792035 -136.8846544 97.63970692 -136.87109375 94.28125 C-136.87402939 93.01559204 -136.87696503 91.74993408 -136.87998962 90.44592285 C-136.86730545 89.27460815 -136.85462128 88.10329346 -136.84155273 86.89648438 C-136.83614975 85.86406616 -136.83074677 84.83164795 -136.82518005 83.76794434 C-136.4375 81.1875 -136.4375 81.1875 -135.1219635 79.34899902 C-132.32777233 77.4223023 -129.56493066 77.90876338 -126.25 78 C-124.34154297 78.04060547 -124.34154297 78.04060547 -122.39453125 78.08203125 C-120.93080078 78.13423828 -120.93080078 78.13423828 -119.4375 78.1875 C-119.45844727 77.17437744 -119.47939453 76.16125488 -119.50097656 75.11743164 C-119.5739467 71.32119145 -119.61950435 67.52501189 -119.65722656 63.72827148 C-119.67721332 62.09209736 -119.70441243 60.45599349 -119.73925781 58.82006836 C-120.10350086 41.26676749 -120.10350086 41.26676749 -115.4375 34.1875 C-114.64279297 32.97320312 -114.64279297 32.97320312 -113.83203125 31.734375 C-108.84313466 26.06797394 -102.99872326 21.62233505 -95.4375 20.1875 C-92.73737722 20.09810015 -90.06393139 20.06123247 -87.36425781 20.07397461 C-86.14906212 20.07375557 -86.14906212 20.07375557 -84.90931702 20.0735321 C-82.23639227 20.07422776 -79.56353755 20.08200394 -76.890625 20.08984375 C-75.03546181 20.09170916 -73.18029813 20.09313248 -71.32513428 20.09413147 C-66.44580726 20.09794695 -61.56651007 20.10776898 -56.68719482 20.11883545 C-51.7068319 20.12907039 -46.72646416 20.13363356 -41.74609375 20.13867188 C-31.9765494 20.1493921 -22.20702718 20.16645691 -12.4375 20.1875 C-12.44273682 19.61717041 -12.44797363 19.04684082 -12.45336914 18.45922852 C-12.47408221 15.88949677 -12.4871419 13.31978253 -12.5 10.75 C-12.50837891 9.85216797 -12.51675781 8.95433594 -12.52539062 8.02929688 C-12.52861328 7.17529297 -12.53183594 6.32128906 -12.53515625 5.44140625 C-12.54039307 4.65064697 -12.54562988 3.8598877 -12.55102539 3.04516602 C-12.24026267 -2.03998131 -3.77592868 0.00225429 0 0 Z M-91.1875 57.3125 C-94.06769361 61.63279041 -93.59916893 66.22797948 -93.61450195 71.21362305 C-93.62107315 72.13755356 -93.62764435 73.06148407 -93.63441467 74.01341248 C-93.654147 77.07534872 -93.66581105 80.13723589 -93.67578125 83.19921875 C-93.67985678 84.24560831 -93.6839323 85.29199787 -93.68813133 86.37009621 C-93.70899323 91.91005888 -93.72329363 97.44999678 -93.73266602 102.98999023 C-93.74372192 108.70528561 -93.77811231 114.42019075 -93.81783772 120.13534832 C-93.84401657 124.53551444 -93.85235907 128.93558782 -93.85594749 133.33582497 C-93.86081127 135.44209232 -93.87241927 137.5483556 -93.89098549 139.65454674 C-93.91540022 142.60814448 -93.9144073 145.56073599 -93.9074707 148.5144043 C-93.92028076 149.37859985 -93.93309082 150.24279541 -93.94628906 151.13317871 C-93.88903174 157.848728 -92.06634421 162.93182676 -87.83203125 168.17578125 C-79.11765359 175.4700381 -69.96927062 175.62799852 -58.97265625 175.57568359 C-57.52781784 175.57975557 -56.08298255 175.58510096 -54.63815308 175.59161377 C-50.73730111 175.60521882 -46.83668881 175.60001712 -42.93583298 175.59047651 C-38.84010963 175.5828444 -34.74440585 175.58993534 -30.64868164 175.59463501 C-23.77258649 175.60008227 -16.89658823 175.59292807 -10.02050781 175.57861328 C-2.08778016 175.56228872 5.84471611 175.56757796 13.77743816 175.5840925 C20.60659855 175.59773681 27.43568957 175.59961267 34.2648592 175.59177649 C38.33561809 175.58711612 42.40626848 175.58642983 46.47702026 175.59638596 C50.30537542 175.60509637 54.13343428 175.59896 57.96175766 175.58170319 C59.36090479 175.57775998 60.76007716 175.57883497 62.15921402 175.58549118 C72.71760564 175.63106365 82.62183575 174.88066303 90.5625 167.1875 C95.25852258 160.83573693 95.71336796 155.06562669 95.72363281 147.39916992 C95.72859772 146.51250137 95.73356262 145.62583282 95.73867798 144.71229553 C95.75327523 141.78084535 95.76009755 138.84944929 95.765625 135.91796875 C95.77137844 133.87779235 95.77713615 131.83761596 95.78289795 129.79743958 C95.79340099 125.51949817 95.79924823 121.24157553 95.80273438 116.96362305 C95.80821769 111.48934053 95.83224531 106.0153069 95.86070633 100.54110241 C95.87935495 96.32627138 95.8845395 92.11150004 95.88607025 87.89663124 C95.88909226 85.87886507 95.8971055 83.86109984 95.91025543 81.84337425 C95.92736234 79.01672952 95.9254243 76.19068956 95.91894531 73.36401367 C95.93276749 72.12078842 95.93276749 72.12078842 95.9468689 70.85244751 C95.89294669 63.32015894 93.64805692 57.41919817 88.4026413 51.87883759 C81.10826955 45.17432792 71.9930959 45.61259059 62.63867188 45.66992188 C61.14457011 45.66449305 59.65047371 45.65736614 58.15638733 45.64868164 C54.12118571 45.63053547 50.0863958 45.63747946 46.05118752 45.65019798 C41.81532357 45.66037106 37.57949335 45.6509204 33.34362793 45.64465332 C26.23211379 45.6373894 19.12076617 45.64693154 12.00927734 45.66601562 C3.80383505 45.68778202 -4.40120959 45.68072975 -12.60664225 45.65871 C-19.66936077 45.6405201 -26.73196003 45.63801517 -33.79469442 45.64846468 C-38.00520941 45.65467994 -42.21553787 45.65558976 -46.42604065 45.64231873 C-50.38579861 45.63070834 -54.34504714 45.63887965 -58.30475044 45.66189575 C-59.75227071 45.66715532 -61.19983433 45.66571653 -62.64733696 45.65684509 C-75.29000272 45.58654312 -82.99020034 47.35863613 -91.1875 57.3125 Z " fill="#0A2A4A" transform="translate(221.4375,42.8125)"/>
<path d="M0 0 C1.08176514 0.39985107 2.16353027 0.79970215 3.27807617 1.21166992 C5.05794922 1.868125 5.05794922 1.868125 6.8737793 2.5378418 C8.09387695 3.00125977 9.31397461 3.46467773 10.57104492 3.94213867 C11.81047852 4.39395508 13.04991211 4.84577148 14.3269043 5.3112793 C23.50109055 8.74345711 23.50109055 8.74345711 25.75854492 12.12963867 C26.16833259 16.70133232 25.28546989 20.21016219 23.75854492 24.50463867 C23.20166992 26.09405273 23.20166992 26.09405273 22.63354492 27.71557617 C22.20041992 28.91053711 22.20041992 28.91053711 21.75854492 30.12963867 C22.47421631 30.25653076 23.1898877 30.38342285 23.92724609 30.51416016 C26.75929805 31.12980239 29.34135803 31.97593824 32.05932617 32.97729492 C33.03579102 33.33500977 34.01225586 33.69272461 35.01831055 34.0612793 C36.02571289 34.43446289 37.03311523 34.80764648 38.07104492 35.19213867 C39.0977832 35.56918945 40.12452148 35.94624023 41.18237305 36.3347168 C43.70898379 37.26309935 46.23430253 38.19483996 48.75854492 39.12963867 C49.26643555 38.49155273 49.77432617 37.8534668 50.29760742 37.19604492 C51.33014648 35.95661133 51.33014648 35.95661133 52.38354492 34.69213867 C53.05643555 33.86842773 53.72932617 33.0447168 54.42260742 32.19604492 C57.3630521 29.59488232 58.85285078 29.37975561 62.75854492 29.12963867 C65.53889438 29.84398901 68.04534164 30.61981672 70.71166992 31.62963867 C71.82381866 32.0396814 71.82381866 32.0396814 72.95843506 32.45800781 C74.51767495 33.03911142 76.07407164 33.62789519 77.62768555 34.22387695 C80.00483931 35.12822893 82.39543635 35.9868971 84.78979492 36.84448242 C86.30644632 37.4159847 87.82211011 37.99011624 89.33666992 38.56713867 C90.05123352 38.81850586 90.76579712 39.06987305 91.50201416 39.32885742 C95.16705298 40.78652175 96.5711404 41.71707369 98.22241211 45.35229492 C98.75854492 49.12963867 98.75854492 49.12963867 98.75854492 57.12963867 C107.66854492 60.42963867 116.57854492 63.72963867 125.75854492 67.12963867 C126.74854492 63.82963867 127.73854492 60.52963867 128.75854492 57.12963867 C131.01941449 52.86876911 131.01941449 52.86876911 132.75854492 51.12963867 C137.78362921 50.8228375 141.57534602 51.47340749 146.27807617 53.21166992 C148.05794922 53.868125 148.05794922 53.868125 149.8737793 54.5378418 C151.09387695 55.00125977 152.31397461 55.46467773 153.57104492 55.94213867 C154.81047852 56.39395508 156.04991211 56.84577148 157.3269043 57.3112793 C166.50109055 60.74345711 166.50109055 60.74345711 168.75854492 64.12963867 C169.02207411 70.37904515 166.92810182 76.35779863 164.75854492 82.12963867 C167.39854492 82.78963867 170.03854492 83.44963867 172.75854492 84.12963867 C171.08500379 90.03465371 169.23669464 95.88230325 167.25854492 101.69213867 C166.85635742 102.88967773 166.45416992 104.0872168 166.03979492 105.32104492 C165.61698242 106.24788086 165.19416992 107.1747168 164.75854492 108.12963867 C160.99229821 109.38505424 159.38665558 108.50025826 155.75854492 107.12963867 C155.43241211 108.03327148 155.1062793 108.9369043 154.77026367 109.86791992 C154.33327148 111.04741211 153.8962793 112.2269043 153.44604492 113.44213867 C153.01678711 114.61389648 152.5875293 115.7856543 152.14526367 116.99291992 C150.05235407 121.72702248 150.05235407 121.72702248 147.75854492 123.12963867 C142.79603608 123.4345027 139.11216033 122.83473637 134.49291992 121.04760742 C133.3559668 120.6099707 132.21901367 120.17233398 131.04760742 119.72143555 C129.8797168 119.25801758 128.71182617 118.79459961 127.50854492 118.31713867 C126.32518555 117.86532227 125.14182617 117.41350586 123.92260742 116.94799805 C113.97511517 113.06756969 113.97511517 113.06756969 111.75854492 110.12963867 C111.16765794 105.10709932 112.14404218 101.45950612 114.10229492 96.92651367 C114.93007211 94.97880791 114.93007211 94.97880791 114.75854492 92.12963867 C107.49854492 89.48963867 100.23854492 86.84963867 92.75854492 84.12963867 C91.91291992 85.96526367 91.06729492 87.80088867 90.19604492 89.69213867 C86.57908921 96.92605009 82.16358813 102.5329034 74.75854492 106.12963867 C74.09854492 106.12963867 73.43854492 106.12963867 72.75854492 106.12963867 C72.59636475 106.70504395 72.43418457 107.28044922 72.26708984 107.87329102 C67.22119599 125.27138153 60.31898651 142.1752727 51.75854492 158.12963867 C51.17459961 159.28592773 50.5906543 160.4422168 49.98901367 161.63354492 C46.28622388 168.84688035 42.1233124 175.05375191 36.75854492 181.12963867 C36.19006836 181.82702148 35.6215918 182.5244043 35.03588867 183.24291992 C25.26030779 194.30758839 10.10792829 199.21911955 -4.24145508 200.12963867 C-23.44970358 200.98850018 -42.21715688 200.06125184 -61.24145508 197.12963867 C-61.50958008 196.43741211 -61.77770508 195.74518555 -62.05395508 195.03198242 C-67.20500976 182.17128997 -73.14257442 170.64213099 -82.24145508 160.12963867 C-83.35520508 158.61370117 -83.35520508 158.61370117 -84.49145508 157.06713867 C-90.51922468 149.90281992 -99.41747712 144.78472054 -107.47583008 140.22338867 C-108.34981445 139.68198242 -108.34981445 139.68198242 -109.24145508 139.12963867 C-109.24145508 138.79963867 -109.24145508 138.46963867 -109.24145508 138.12963867 C-97.66071233 138.0360642 -86.08006268 137.96543745 -74.49901581 137.92238998 C-69.11875347 137.90170683 -63.73875381 137.87375169 -58.35864258 137.82788086 C-4.07751777 137.3773344 -4.07751777 137.3773344 19.75854492 146.12963867 C19.91323242 144.68911133 19.91323242 144.68911133 20.07104492 143.21948242 C20.74845173 138.52350082 22.23052879 134.17083595 23.75854492 129.69213867 C24.05672119 128.79052002 24.35489746 127.88890137 24.66210938 126.95996094 C26.38548326 121.8354335 28.26747372 116.82457097 30.36401367 111.84057617 C30.79262695 110.79442139 31.22124023 109.7482666 31.6628418 108.67041016 C32.4978285 106.65109585 33.36364476 104.64416569 34.2644043 102.65332031 C37.09482213 95.73604075 36.69137205 91.68554339 33.81030273 84.7980957 C30.7980565 77.15560468 33.40110819 69.63695206 35.75854492 62.12963867 C34.58291992 61.92338867 33.40729492 61.71713867 32.19604492 61.50463867 C25.08397012 59.95457109 18.4489215 56.93272135 11.75854492 54.12963867 C11.57678711 54.7819043 11.3950293 55.43416992 11.20776367 56.10620117 C8.12079116 66.83936712 8.12079116 66.83936712 5.75854492 70.12963867 C-1.31042685 72.44347687 -7.26740448 69.37631322 -13.92895508 66.81713867 C-15.05624023 66.40012695 -16.18352539 65.98311523 -17.3449707 65.5534668 C-29.86435841 60.883832 -29.86435841 60.883832 -31.24145508 58.12963867 C-31.64599448 53.07289618 -30.86957776 49.49103376 -28.89770508 44.92651367 C-28.06992789 42.97880791 -28.06992789 42.97880791 -28.24145508 40.12963867 C-30.22145508 39.13963867 -32.20145508 38.14963867 -34.24145508 37.12963867 C-33.63606719 33.77012565 -32.80821426 30.68079504 -31.61254883 27.48510742 C-31.29995117 26.64399414 -30.98735352 25.80288086 -30.6652832 24.9362793 C-30.17705078 23.63980469 -30.17705078 23.63980469 -29.67895508 22.31713867 C-29.34959961 21.43348633 -29.02024414 20.54983398 -28.6809082 19.6394043 C-27.87110907 17.46820372 -27.05786615 15.29835979 -26.24145508 13.12963867 C-19.49145508 14.00463867 -19.49145508 14.00463867 -17.24145508 15.12963867 C-17.11641602 14.41291992 -16.99137695 13.69620117 -16.86254883 12.95776367 C-16.23912748 10.11904004 -15.37480481 7.57898819 -14.30395508 4.87963867 C-13.96493164 4.00823242 -13.6259082 3.13682617 -13.27661133 2.23901367 C-10.80865715 -2.79002503 -4.60250598 -1.23581636 0 0 Z " fill="#0A2A4A" transform="translate(426.241455078125,124.870361328125)"/>
<path d="M0 0 C0.70125 0.721875 1.4025 1.44375 2.125 2.1875 C7.75787061 7.78863612 13.22527369 13.10008832 21.5234375 13.29296875 C23.14088682 13.27324376 24.75821213 13.23778288 26.375 13.1875 C27.20644531 13.17396484 28.03789062 13.16042969 28.89453125 13.14648438 C30.92997066 13.11139059 32.96507291 13.05759228 35 13 C29.92250051 31.01465543 22.84489699 48.51548548 14 65 C13.41605469 66.15628906 12.83210937 67.31257813 12.23046875 68.50390625 C8.52767896 75.71724167 4.36476748 81.92411324 -1 88 C-1.85271484 89.04607422 -1.85271484 89.04607422 -2.72265625 90.11328125 C-12.49823713 101.17794972 -27.65061663 106.08948087 -42 107 C-61.2082485 107.85886151 -79.9757018 106.93161316 -99 104 C-99.268125 103.30777344 -99.53625 102.61554688 -99.8125 101.90234375 C-104.96355468 89.0416513 -110.90111934 77.51249231 -120 67 C-120.7425 65.989375 -121.485 64.97875 -122.25 63.9375 C-128.2777696 56.77318125 -137.17602204 51.65508186 -145.234375 47.09375 C-145.81703125 46.7328125 -146.3996875 46.371875 -147 46 C-147 45.67 -147 45.34 -147 45 C-135.41925725 44.90642553 -123.8386076 44.83579877 -112.25756073 44.79275131 C-106.87729839 44.77206816 -101.49729873 44.74411302 -96.1171875 44.69824219 C-41.83606269 44.24769573 -41.83606269 44.24769573 -18 53 C-17.8453125 51.55947266 -17.8453125 51.55947266 -17.6875 50.08984375 C-17.0102 45.39460263 -15.53118767 41.03958733 -14 36.5625 C-13.69819824 35.66885742 -13.39639648 34.77521484 -13.08544922 33.85449219 C-10.55361169 26.44155791 -7.86493687 19.08825134 -5.125 11.75 C-4.53525391 10.16940796 -4.53525391 10.16940796 -3.93359375 8.55688477 C-3.56621094 7.58420654 -3.19882812 6.61152832 -2.8203125 5.609375 C-2.49305176 4.74280273 -2.16579102 3.87623047 -1.82861328 2.98339844 C-1 1 -1 1 0 0 Z " fill="#0A2A4A" transform="translate(464,218)"/>
<path d="M0 0 C6.93606215 48.42047299 6.93606215 48.42047299 -4.02392578 64.77099609 C-14.078346 78.15667268 -27.68717381 89.02529894 -41 99 C-37.32971676 103.58803435 -33.70806691 107.17245001 -28.98445129 110.64822388 C-16.05329074 120.24541798 -1.23645971 131.64121925 1.63134766 148.31933594 C3.46746635 165.08984483 1.99917408 182.30861264 0 199 C-5.75628153 194.21647413 -11.05263186 189.08336967 -16.33178711 183.78173828 C-17.23989136 182.87378006 -18.14799561 181.96582184 -19.08361816 181.03034973 C-21.55437636 178.5598765 -24.02205581 176.08634917 -26.48916316 173.61223078 C-29.07516336 171.01994675 -31.66402707 168.43052557 -34.25257874 165.84078979 C-39.14530237 160.9449676 -44.03547296 156.04660364 -48.92471462 151.14730442 C-54.49472932 145.5660826 -60.06760984 139.98772606 -65.64072406 134.40959954 C-77.09699112 122.94290153 -88.54968266 111.47263931 -100 100 C-95.96953951 95.16318527 -91.74966444 90.6131247 -87.27954102 86.18188477 C-86.63641968 85.54022369 -85.99329834 84.89856262 -85.33068848 84.23745728 C-83.9453941 82.85594394 -82.55894656 81.47558612 -81.17144966 80.09628487 C-78.96971194 77.90741173 -76.77120154 75.71534181 -74.57347107 73.52244568 C-69.11574343 68.07802711 -63.65258272 62.63907086 -58.1895752 57.19995117 C-53.56631205 52.59648941 -48.94514967 47.99093783 -44.32670403 43.38264275 C-42.17132167 41.23369504 -40.01292601 39.08780645 -37.85438538 36.94203186 C-36.51939181 35.6106745 -35.18454051 34.27917446 -33.84985352 32.94750977 C-33.25794724 32.36076981 -32.66604095 31.77402985 -32.05619812 31.16950989 C-28.38316379 27.49693409 -24.91583858 23.69171656 -21.52630234 19.75580502 C-18.10635977 15.82162227 -14.37016164 12.185663 -10.6875 8.5 C-9.87732422 7.67757813 -9.06714844 6.85515625 -8.23242188 6.0078125 C-7.07129883 4.84378906 -7.07129883 4.84378906 -5.88671875 3.65625 C-5.18764404 2.95306641 -4.48856934 2.24988281 -3.76831055 1.52539062 C-2 0 -2 0 0 0 Z " fill="#0A2A4A" transform="translate(103,263)"/>
<path d="M0 0 C0.73250977 0.00088623 1.46501953 0.00177246 2.21972656 0.00268555 C11.17431365 0.19451391 19.24567061 2.55597909 26.8125 7.375 C26.998125 5.9209375 26.998125 5.9209375 27.1875 4.4375 C27.39375 3.426875 27.6 2.41625 27.8125 1.375 C30.95760093 -0.19755046 34.30015445 0.14927332 37.75 0.125 C38.47896484 0.104375 39.20792969 0.08375 39.95898438 0.0625 C45.34352684 0.02301665 45.34352684 0.02301665 47.52177715 1.65788174 C49.78866861 4.67364979 49.21795036 8.40897129 49.18481445 12.03735352 C49.18846512 12.92215393 49.19211578 13.80695435 49.19587708 14.71856689 C49.20399224 17.64720775 49.19036549 20.57529704 49.17578125 23.50390625 C49.17526281 25.53506978 49.1757799 27.56623382 49.17729187 29.59739685 C49.17720211 33.85529058 49.16676326 38.11299512 49.14868164 42.37084961 C49.12597997 47.83777834 49.12545254 53.30443087 49.13219929 58.77139378 C49.13553506 62.96545379 49.12891682 67.15945044 49.11907005 71.35349846 C49.11521207 73.36979783 49.1140723 75.38610425 49.1156559 77.40240669 C49.11602534 80.21575568 49.10344108 83.02874576 49.0871582 85.84204102 C49.08963562 86.68105453 49.09211304 87.52006805 49.09466553 88.38450623 C49.04124215 94.14625785 49.04124215 94.14625785 46.8125 96.375 C44.94897461 96.61791992 44.94897461 96.61791992 42.71484375 96.60546875 C41.91369141 96.60353516 41.11253906 96.60160156 40.28710938 96.59960938 C39.44986328 96.58736328 38.61261719 96.57511719 37.75 96.5625 C36.48833008 96.5615332 36.48833008 96.5615332 35.20117188 96.56054688 C28.95273184 96.51523184 28.95273184 96.51523184 27.8125 95.375 C27.77157063 93.04202567 27.77008277 90.70794775 27.8125 88.375 C27.05066406 88.78492188 26.28882813 89.19484375 25.50390625 89.6171875 C12.19016713 96.56493151 -0.44473269 98.63858722 -15.203125 94.48046875 C-28.2850512 89.63467672 -36.88499586 81.61675155 -43.1875 69.375 C-43.60386719 68.58867187 -44.02023438 67.80234375 -44.44921875 66.9921875 C-49.11464835 56.54817317 -48.8695914 42.60744221 -45.625 31.75 C-43.32682948 26.01266584 -40.08572965 21.14596763 -36.1875 16.375 C-35.67574219 15.73820312 -35.16398438 15.10140625 -34.63671875 14.4453125 C-25.82055623 4.60096229 -12.94241008 -0.028607 0 0 Z M-1.1875 33.375 C-2.63897903 36.27795805 -2.55989025 38.14761779 -2.1875 41.375 C-0.37439858 44.30437654 1.68545899 46.81147949 4.8125 48.375 C10.08133876 48.97373168 12.6971468 47.62900021 16.8125 44.375 C18.41336627 41.17326746 18.31167089 37.84922941 17.8125 34.375 C16.01886089 31.5649654 14.79369065 29.86559532 11.8125 28.375 C5.42960935 27.74717469 2.97682026 28.07495604 -1.1875 33.375 Z " fill="#0A2A4A" transform="translate(221.1875,105.625)"/>
<path d="M0 0 C7.67273254 6.46944423 13.9007634 14.59240562 14.85546875 24.84375 C15.13834973 35.81655434 12.8816869 45.88905695 5.59375 54.35546875 C-1.43869183 61.2211333 -10.75824658 66.35248284 -20.6953125 66.78515625 C-31.93687082 66.27706322 -41.59339118 62.48380441 -49.3828125 54.28515625 C-56.72236751 44.62866545 -59.84132601 34.37807407 -58.3828125 22.28515625 C-55.81431597 12.28415042 -50.11033814 4.13750569 -41.53125 -1.6328125 C-28.16539335 -9.21640502 -12.70834808 -9.14584395 0 0 Z M-23.3828125 15.28515625 C-24.83429153 18.1881143 -24.75520275 20.05777404 -24.3828125 23.28515625 C-22.56971108 26.21453279 -20.50985351 28.72163574 -17.3828125 30.28515625 C-12.11397374 30.88388793 -9.4981657 29.53915646 -5.3828125 26.28515625 C-3.78194623 23.08342371 -3.88364161 19.75938566 -4.3828125 16.28515625 C-6.17645161 13.47512165 -7.40162185 11.77575157 -10.3828125 10.28515625 C-16.76570315 9.65733094 -19.21849224 9.98511229 -23.3828125 15.28515625 Z " fill="#0A2B4A" transform="translate(243.3828125,123.71484375)"/>
<path d="M0 0 C4.48153451 1.54719644 7.34407754 3.01611632 10 7 C10.21296253 10.904313 10.03139845 14.24570964 9 18 C9.88921143 18.25197144 9.88921143 18.25197144 10.79638672 18.5090332 C17.37343189 20.42120314 23.74236299 22.70884953 30.125 25.1875 C31.08148438 25.55552734 32.03796875 25.92355469 33.0234375 26.30273438 C35.35024289 27.19855445 37.67571021 28.09767773 40 29 C38.71260823 38.360411 34.40402311 44.1363792 27.4765625 50.37109375 C20.25792155 55.11900112 11.30545656 54.8500254 3 54 C-3.43985689 51.93334105 -8.85520111 47.29094907 -13 42 C-13 41.34 -13 40.68 -13 40 C-13.66 40 -14.32 40 -15 40 C-19.6251463 28.95333362 -20.26015228 21.24607996 -16 10 C-12.52629498 1.74305831 -9.2555479 -1.23904915 0 0 Z " fill="#2AA7A0" transform="translate(478,178)"/>
<path d="M0 0 C7.67273254 6.46944423 13.9007634 14.59240562 14.85546875 24.84375 C15.13834973 35.81655434 12.8816869 45.88905695 5.59375 54.35546875 C-1.43869183 61.2211333 -10.75824658 66.35248284 -20.6953125 66.78515625 C-31.93687082 66.27706322 -41.59339118 62.48380441 -49.3828125 54.28515625 C-56.72236751 44.62866545 -59.84132601 34.37807407 -58.3828125 22.28515625 C-55.81431597 12.28415042 -50.11033814 4.13750569 -41.53125 -1.6328125 C-28.16539335 -9.21640502 -12.70834808 -9.14584395 0 0 Z M-44.3828125 12.28515625 C-45.97678778 14.57016128 -47.14946921 16.76913594 -48.3828125 19.28515625 C-48.7128125 19.94515625 -49.0428125 20.60515625 -49.3828125 21.28515625 C-50.04790585 31.74758624 -49.95168354 40.02704219 -43.3203125 48.47265625 C-38.33897828 53.73419052 -33.17343599 56.84170873 -25.91015625 57.69140625 C-15.6252802 57.95540307 -8.75625164 56.38174674 -1.2109375 49.296875 C4.37221495 43.15302134 6.98231954 36.59799565 6.6171875 28.28515625 C5.62966894 18.72648304 1.89770194 12.50711447 -5.3828125 6.28515625 C-19.19949746 -2.71119993 -33.59114853 0.56570217 -44.3828125 12.28515625 Z " fill="#29A39E" transform="translate(243.3828125,123.71484375)"/>
<path d="M0 0 C1.26516836 0.44857941 2.52706415 0.90647354 3.78588867 1.37255859 C4.45931808 1.62089447 5.1327475 1.86923035 5.82658386 2.12509155 C7.23739226 2.65039745 8.64658856 3.18005182 10.05419922 3.71386719 C12.20710267 4.52221458 14.37142028 5.29271192 16.5378418 6.06396484 C17.91305315 6.581209 19.28743503 7.10066504 20.66088867 7.62255859 C21.30669388 7.84577789 21.95249908 8.06899719 22.61787415 8.29898071 C24.4296875 9.015625 24.4296875 9.015625 27.39135742 10.89599609 C31.04741383 20.13291507 28.50884534 27.32820954 24.93823242 36.19677734 C23.14625848 39.32368137 21.39690664 40.92889387 18.39135742 42.89599609 C12.33585516 43.78943085 9.09991542 42.62896385 4.05541992 39.28271484 C2.39135742 37.89599609 2.39135742 37.89599609 0.39135742 34.89599609 C0.19285139 31.19055022 0.21470871 28.42594223 1.39135742 24.89599609 C0.5947168 24.80447266 -0.20192383 24.71294922 -1.02270508 24.61865234 C-5.58287886 23.69966307 -9.67906561 22.06699798 -13.98364258 20.33349609 C-14.81508789 20.00414062 -15.6465332 19.67478516 -16.50317383 19.33544922 C-18.54048876 18.52754847 -20.575487 17.71429499 -22.60864258 16.89599609 C-20.85782953 9.32248415 -18.38663003 4.22845198 -12.60864258 -1.10400391 C-8.62482256 -3.09591391 -4.06142929 -1.24252644 0 0 Z " fill="#2AA6A0" transform="translate(495.608642578125,156.10400390625)"/>
<path d="M0 0 C4.45003942 1.72128942 7.05402962 4.09908603 10.30859375 7.515625 C10.88867188 8.08087891 11.46875 8.64613281 12.06640625 9.22851562 C14.72715237 11.94210367 16.27661784 13.86178051 17.50390625 17.5078125 C17.41872566 20.92450075 16.79866005 21.85468457 14.43359375 24.265625 C13.78390625 24.9359375 13.13421875 25.60625 12.46484375 26.296875 C11.79453125 26.9671875 11.12421875 27.6375 10.43359375 28.328125 C9.84578125 28.9984375 9.25796875 29.66875 8.65234375 30.359375 C8.08515625 30.9884375 7.51796875 31.6175 6.93359375 32.265625 C6.42828125 32.83152344 5.92296875 33.39742187 5.40234375 33.98046875 C2.24848052 36.13936322 0.26559545 36.46285929 -3.56640625 36.328125 C-6.65026277 34.38877285 -9.01492494 31.9060458 -11.50390625 29.265625 C-12.18775391 28.59595703 -12.87160156 27.92628906 -13.57617188 27.23632812 C-16.37961437 24.36006894 -18.30576496 22.21384407 -19.44921875 18.328125 C-18.05504346 13.59039657 -14.97630041 10.79101853 -11.50390625 7.390625 C-10.84712891 6.69388672 -10.19035156 5.99714844 -9.51367188 5.27929688 C-6.30048673 2.07244313 -4.61606261 0.42469798 0 0 Z " fill="#0A2A4A" transform="translate(222.56640625,1.671875)"/>
</svg>
